<svg width="31" height="32" viewBox="0 0 31 32" fill="none" xmlns="http://www.w3.org/2000/svg">
<path d="M15.4993 10.6743C12.643 10.6743 10.3403 13.0743 10.3403 16C10.3403 18.9257 12.6651 21.3257 15.4993 21.3257C18.3335 21.3257 20.6584 18.9257 20.6584 16C20.6584 13.0743 18.3335 10.6743 15.4993 10.6743ZM30.9986 16C30.9986 13.7829 30.9986 11.6114 30.8879 9.39429C30.7772 6.83429 30.2015 4.54857 28.3859 2.69714C26.5702 0.822857 24.3782 0.228571 21.8983 0.114286C19.7505 -1.10694e-07 17.6471 0 15.4993 0C13.3515 0 11.2481 -1.10694e-07 9.10031 0.114286C6.62042 0.228571 4.40623 0.822857 2.61274 2.69714C0.797107 4.57143 0.221419 6.83429 0.110709 9.39429C-1.0723e-07 11.6114 0 13.7829 0 16C0 18.2171 -1.0723e-07 20.3886 0.110709 22.6057C0.221419 25.1657 0.797107 27.4514 2.61274 29.3029C4.42837 31.1771 6.62042 31.7714 9.10031 31.8857C11.2481 32 13.3515 32 15.4993 32C17.6471 32 19.7505 32 21.8983 31.8857C24.3782 31.7714 26.5924 31.1771 28.3859 29.3029C30.2015 27.4286 30.7772 25.1657 30.8879 22.6057C31.0208 20.4114 30.9986 18.2171 30.9986 16ZM15.4993 24.2057C11.0931 24.2057 7.55038 20.5486 7.55038 16C7.55038 11.4514 11.0931 7.79429 15.4993 7.79429C19.9055 7.79429 23.4482 11.4514 23.4482 16C23.4482 20.5486 19.9055 24.2057 15.4993 24.2057ZM23.7804 9.37143C22.7618 9.37143 21.9205 8.52571 21.9205 7.45143C21.9205 6.37714 22.7397 5.53143 23.7804 5.53143C24.821 5.53143 25.6403 6.37714 25.6403 7.45143C25.6459 7.7018 25.6016 7.95069 25.5102 8.18266C25.4188 8.41464 25.2822 8.62476 25.1089 8.8C24.9391 8.97891 24.7356 9.11992 24.5109 9.21428C24.2861 9.30865 24.045 9.35436 23.8025 9.34857L23.7804 9.37143Z" fill="white"/>
</svg>
