<svg width="16" height="32" viewBox="0 0 16 32" fill="none" xmlns="http://www.w3.org/2000/svg">
<path d="M15.5795 29.516L3.28419 17.0233C3.01453 16.7507 2.86328 16.3827 2.86328 15.9993C2.86328 15.6159 3.01453 15.2479 3.28419 14.9754L15.5768 2.48262C15.8463 2.20835 15.9973 1.8392 15.9973 1.45467C15.9973 1.07014 15.8463 0.700986 15.5768 0.426719C15.4451 0.291662 15.2878 0.184329 15.114 0.111041C14.9402 0.0377553 14.7535 -6.44894e-07 14.5648 -6.3665e-07C14.3762 -6.28405e-07 14.1895 0.0377553 14.0157 0.111041C13.8419 0.184329 13.6846 0.291662 13.5529 0.426719L1.26031 12.9168C0.452557 13.7395 -7.49809e-07 14.8464 -6.99412e-07 15.9993C-6.49015e-07 17.1523 0.452557 18.2592 1.26031 19.0818L13.5529 31.5719C13.6846 31.7074 13.8421 31.8151 14.0162 31.8886C14.1902 31.9621 14.3772 32 14.5662 32C14.7551 32 14.9421 31.9621 15.1162 31.8886C15.2902 31.8151 15.4478 31.7074 15.5795 31.5719C15.849 31.2976 16 30.9285 16 30.544C16 30.1594 15.849 29.7903 15.5795 29.516Z" fill="black"/>
</svg>
