<svg width="16" height="32" viewBox="0 0 16 32" fill="none" xmlns="http://www.w3.org/2000/svg">
<path d="M0.420542 2.48399L12.7158 14.9767C12.9855 15.2493 13.1367 15.6173 13.1367 16.0007C13.1367 16.3841 12.9855 16.7521 12.7158 17.0246L0.423208 29.5174C0.153689 29.7916 0.00266802 30.1608 0.002668 30.5453C0.00266798 30.9299 0.153689 31.299 0.423208 31.5733C0.554872 31.7083 0.712238 31.8157 0.886033 31.889C1.05983 31.9622 1.24653 32 1.43515 32C1.62376 32 1.81047 31.9622 1.98426 31.889C2.15806 31.8157 2.31542 31.7083 2.44709 31.5733L14.7397 19.0832C15.5474 18.2605 16 17.1536 16 16.0007C16 14.8477 15.5474 13.7408 14.7397 12.9182L2.44709 0.428089C2.31538 0.292624 2.15785 0.184942 1.98381 0.111413C1.80977 0.037884 1.62275 -6.2845e-07 1.43382 -6.36708e-07C1.24488 -6.44967e-07 1.05786 0.0378839 0.883821 0.111413C0.709781 0.184942 0.552247 0.292623 0.420542 0.428089C0.151023 0.702357 1.86051e-06 1.07151 1.8437e-06 1.45604C1.82689e-06 1.84057 0.151023 2.20972 0.420542 2.48399Z" fill="black"/>
</svg>
