<svg width="31" height="32" viewBox="0 0 31 32" fill="none" xmlns="http://www.w3.org/2000/svg">
<path d="M15.5 0C12.4344 0 9.43763 0.938383 6.88867 2.69649C4.33971 4.45459 2.35303 6.95344 1.17987 9.87706C0.0067159 12.8007 -0.300236 16.0177 0.297835 19.1214C0.895906 22.2251 2.37214 25.0761 4.53985 27.3137C6.70756 29.5513 9.4694 31.0752 12.4761 31.6926C15.4828 32.3099 18.5993 31.9931 21.4316 30.7821C24.2639 29.5711 26.6846 27.5203 28.3878 24.8891C30.0909 22.2579 31 19.1645 31 16C30.9959 11.7578 29.3615 7.69063 26.4556 4.69097C23.5497 1.69131 19.6096 0.00423581 15.5 0ZM24.7055 12.3408V13.3744C24.7055 13.4535 24.6901 13.5318 24.6604 13.6047C24.6306 13.6776 24.5869 13.7436 24.532 13.7988C24.4771 13.8539 24.4121 13.8972 24.3407 13.926C24.2693 13.9548 24.1931 13.9685 24.1165 13.9664C22.48 13.8467 20.9144 13.2298 19.6168 12.1936V19.7584C19.6166 20.5957 19.4548 21.4245 19.1407 22.1964C18.8267 22.9684 18.3668 23.668 17.7878 24.2544C17.2037 24.8554 16.5095 25.3305 15.7458 25.6518C14.9821 25.9732 14.164 26.1345 13.3393 26.1264C11.6807 26.1234 10.0888 25.4517 8.9032 24.2544C8.14896 23.4694 7.60569 22.4953 7.32685 21.4278C7.04801 20.3604 7.0432 19.2364 7.31291 18.1664C7.55936 17.1392 8.0569 16.1952 8.75906 15.4256C9.28269 14.7649 9.94275 14.2334 10.691 13.87C11.4392 13.5065 12.2566 13.3202 13.0836 13.3248H14.3546V16.0496C14.3551 16.1287 14.3393 16.2071 14.3082 16.2794C14.2772 16.3518 14.2315 16.4164 14.1743 16.4691C14.1171 16.5218 14.0497 16.5613 13.9765 16.585C13.9034 16.6086 13.8262 16.6159 13.7501 16.6064C13.0121 16.3776 12.2169 16.4535 11.5321 16.8181C10.8472 17.1827 10.3263 17.8075 10.0791 18.5609C9.83188 19.3142 9.87767 20.1372 10.2068 20.8564C10.536 21.5756 11.1228 22.1347 11.8436 22.416C12.2621 22.664 12.7302 22.8096 13.2107 22.8432C13.5827 22.8592 13.9547 22.8112 14.3081 22.696C14.8983 22.4909 15.4117 22.1007 15.7766 21.5798C16.1415 21.0588 16.3396 20.4332 16.3432 19.7904V6.0064C16.343 5.93083 16.3572 5.85597 16.3851 5.78609C16.413 5.71622 16.4539 5.65271 16.5056 5.5992C16.5573 5.54569 16.6187 5.50324 16.6864 5.47427C16.754 5.44531 16.8265 5.4304 16.8997 5.4304H19.0929C19.2355 5.43019 19.3728 5.48652 19.4763 5.58775C19.5799 5.68898 19.6418 5.82739 19.6494 5.9744C19.7296 6.68029 19.9469 7.36223 20.2883 7.97942C20.6297 8.59661 21.0883 9.13636 21.6365 9.5664C22.3775 10.1406 23.2576 10.4927 24.18 10.584C24.3182 10.5962 24.4473 10.6596 24.5437 10.7626C24.64 10.8656 24.6969 11.001 24.7039 11.144L24.7055 12.3408Z" fill="white"/>
</svg>
