<svg width="39" height="28" viewBox="0 0 39 28" fill="none" xmlns="http://www.w3.org/2000/svg">
<path d="M19.6255 0.5H19.8425C21.8462 0.507207 31.9991 0.579278 34.7365 1.30479C35.5641 1.52621 36.3182 1.9578 36.9235 2.55643C37.5288 3.15506 37.9641 3.89977 38.1858 4.71612C38.432 5.62901 38.6051 6.8374 38.7221 8.08422L38.7465 8.33406L38.8001 8.95867L38.8196 9.20852C38.9781 11.4043 38.9976 13.4607 39 13.9099V14.0901C38.9976 14.5561 38.9756 16.7519 38.8001 19.0389L38.7806 19.2912L38.7587 19.541C38.6368 20.9152 38.4564 22.2797 38.1858 23.2839C37.9641 24.1002 37.5288 24.8449 36.9235 25.4436C36.3182 26.0422 35.5641 26.4738 34.7365 26.6952C31.9089 27.4447 21.1613 27.4976 19.6719 27.5H19.3257C18.5725 27.5 15.4572 27.4856 12.1907 27.3751L11.7763 27.3607L11.5642 27.3511L11.1474 27.3342L10.7305 27.3174C8.02475 27.1997 5.44815 27.0099 4.26102 26.6928C3.43374 26.4716 2.67983 26.0404 2.07457 25.4422C1.4693 24.844 1.03387 24.0998 0.811738 23.2839C0.541159 22.2821 0.360773 20.9152 0.23889 19.541L0.219389 19.2888L0.199887 19.0389C0.0788908 17.4111 0.0122256 15.7799 0 14.1477L0 13.8523C0.00487531 13.3358 0.0243765 11.5508 0.15601 9.58088L0.173073 9.33344L0.180386 9.20852L0.199887 8.95867L0.253516 8.33406L0.277892 8.08422C0.3949 6.8374 0.567973 5.62661 0.814176 4.71612C1.03593 3.89977 1.4712 3.15506 2.07649 2.55643C2.68178 1.9578 3.43589 1.52621 4.26345 1.30479C5.45059 0.992482 8.02719 0.800293 10.733 0.680176L11.1474 0.66336L11.5667 0.648946L11.7763 0.641739L12.1931 0.624923C14.5131 0.551419 16.834 0.510575 19.1551 0.502402L19.6255 0.5ZM15.601 8.21154V19.7861L25.7343 14.0012L15.601 8.21154Z" fill="white"/>
</svg>
